<?xml version="1.0" standalone="no"?>
<!DOCTYPE svg PUBLIC "-//W3C//DTD SVG 20010904//EN"
 "http://www.w3.org/TR/2001/REC-SVG-20010904/DTD/svg10.dtd">
<svg version="1.0" xmlns="http://www.w3.org/2000/svg"
 width="158.000000pt" height="158.000000pt" viewBox="0 0 158.000000 158.000000"
 preserveAspectRatio="xMidYMid meet">
<metadata>
Created by potrace 1.14, written by Peter Selinger 2001-2017
</metadata>
<g transform="translate(0.000000,158.000000) scale(0.100000,-0.100000)"
fill="#000000" stroke="none">
<path d="M561 1464 c-35 -45 -26 -95 20 -119 38 -20 62 -19 93 6 33 26 37 88
6 119 -31 31 -93 27 -119 -6z"/>
<path d="M588 1289 c-26 -15 -24 -75 3 -89 30 -17 62 -8 78 21 13 24 13 29 -2
53 -18 27 -49 33 -79 15z"/>
<path d="M275 1190 c-13 -29 -32 -48 -67 -68 -26 -15 -48 -30 -48 -33 0 -3 20
-17 45 -30 31 -16 52 -37 67 -66 13 -24 27 -42 33 -40 5 2 20 22 32 44 15 26
39 49 68 64 25 13 45 27 45 30 0 3 -19 14 -41 25 -29 13 -51 33 -71 66 -16 26
-33 48 -37 48 -5 0 -16 -18 -26 -40z"/>
<path d="M901 1099 c-40 -17 -54 -19 -128 -10 -101 11 -208 0 -286 -29 -146
-55 -256 -244 -257 -442 0 -48 -3 -59 -21 -69 -18 -9 -20 -8 -15 8 2 10 8 35
12 57 6 36 5 37 -13 27 -31 -16 -128 -124 -146 -164 -44 -91 0 -155 127 -186
27 -7 50 -10 52 -8 3 2 -2 20 -10 39 l-15 35 47 -5 c47 -4 267 41 277 57 2 4
-5 32 -17 62 -17 42 -22 75 -22 149 -1 86 2 101 29 155 35 69 75 101 142 111
121 18 218 -69 230 -208 3 -32 8 -58 12 -58 3 0 39 33 79 73 64 62 72 67 57
37 -25 -50 -73 -118 -116 -165 -20 -22 -40 -54 -43 -72 -10 -46 -58 -107 -100
-127 -24 -11 -57 -16 -104 -15 -40 1 -78 -4 -93 -11 -13 -8 -63 -27 -110 -44
-47 -17 -87 -35 -89 -41 -4 -17 64 -64 125 -86 72 -25 210 -35 288 -20 91 17
171 57 222 112 147 157 174 441 60 635 -22 37 -23 43 -9 55 24 19 44 65 44 98
0 68 -112 95 -209 50z"/>
<path d="M1400 1078 c-72 -20 -107 -76 -111 -176 l-2 -62 -49 0 -48 0 0 -70 0
-70 50 0 50 0 0 -270 0 -270 90 0 c79 0 90 2 91 18 0 9 0 131 0 270 l0 252 54
0 55 0 0 70 0 70 -56 0 -57 0 6 37 c8 47 32 66 75 59 l32 -5 0 80 0 79 -72 -1
c-40 0 -89 -5 -108 -11z"/>
</g>
</svg>
